<svg viewBox="0 0 24 24" xmlns="http://www.w3.org/2000/svg"><path d="m13.5 24h-3c-.276 0-.5-.224-.5-.5v-2.854c-.791-.2-1.669-.456-2.332-.78l-2.032 2.034c-.187.188-.52.188-.707 0l-2.829-2.829c-.094-.094-.146-.221-.146-.354s.053-.26.146-.354l2.033-2.033c-.322-.661-.578-1.539-.779-2.33h-2.854c-.276 0-.5-.224-.5-.5v-3c0-.276.224-.5.5-.5h2.854c.201-.791.456-1.668.778-2.331l-2.032-2.033c-.094-.094-.147-.221-.147-.354s.053-.26.147-.353l2.829-2.828c.195-.195.512-.195.707 0l2.033 2.032c.665-.324 1.542-.579 2.331-.778v-2.855c0-.276.224-.5.5-.5h3c.276 0 .5.224.5.5v2.855c.789.198 1.664.452 2.33.777l2.033-2.032c.195-.195.512-.195.707 0l2.829 2.828c.094.094.146.221.146.354s-.053.26-.146.354l-2.032 2.032c.324.665.578 1.542.778 2.332h2.855c.276 0 .5.224.5.5v3c0 .276-.224.5-.5.5h-2.854c-.201.791-.456 1.669-.778 2.331l2.032 2.033c.195.195.195.512 0 .707l-2.828 2.828c-.195.195-.512.195-.707 0l-2.034-2.032c-.662.322-1.54.578-2.33.778v2.855c-.001.276-.225.5-.501.5zm-2.5-1h2v-2.746c0-.23.158-.432.382-.486.558-.135 2.04-.493 2.777-.944.195-.12.45-.091.614.073l1.944 1.942 2.121-2.121-1.942-1.943c-.164-.163-.193-.417-.073-.614.45-.736.81-2.22.945-2.777.054-.226.255-.384.486-.384h2.746v-2h-2.747c-.231 0-.432-.158-.486-.383-.134-.557-.491-2.036-.944-2.778-.12-.197-.09-.451.073-.614l1.942-1.942-2.122-2.121-1.943 1.942c-.165.164-.419.191-.614.073-.668-.408-1.904-.733-2.776-.942-.224-.054-.383-.256-.383-.487v-2.748h-2v2.748c0 .231-.159.433-.383.486-.873.209-2.11.535-2.777.943-.196.118-.45.091-.614-.073l-1.944-1.943-2.122 2.121 1.943 1.943c.164.164.194.418.074.615-.451.737-.81 2.22-.945 2.777-.054.225-.255.383-.486.383h-2.746v2h2.746c.231 0 .432.158.486.383.135.558.495 2.041.945 2.777.12.197.09.451-.073.614l-1.944 1.944 2.122 2.121 1.942-1.944c.163-.164.417-.193.615-.073.738.453 2.22.812 2.778.946.225.054.383.255.383.486z"/><path d="m12 17c-2.757 0-5-2.243-5-5s2.243-5 5-5 5 2.243 5 5-2.243 5-5 5zm0-9c-2.206 0-4 1.794-4 4s1.794 4 4 4 4-1.794 4-4-1.794-4-4-4z"/></svg>